<?xml version="1.0" encoding="UTF-8"?>
<svg id="Layer_1" xmlns="http://www.w3.org/2000/svg" version="1.1" xmlns:xlink="http://www.w3.org/1999/xlink" viewBox="0 0 800 800">
  <!-- Generator: Adobe Illustrator 30.1.0, SVG Export Plug-In . SVG Version: 2.1.1 Build 136)  -->
  <defs>
    <style>
      .st0 {
        fill: url(#linear-gradient2);
      }

      .st1 {
        fill: url(#linear-gradient1);
      }

      .st2 {
        fill: #0c2461;
      }

      .st3 {
        fill: #1849a9;
      }

      .st4 {
        fill: url(#linear-gradient3);
      }

      .st5 {
        fill: url(#linear-gradient);
      }
    </style>
    <linearGradient id="linear-gradient" x1="0" y1="132.13" x2="463.47" y2="132.13" gradientUnits="userSpaceOnUse">
      <stop offset="0" stop-color="#1e3a8a"/>
      <stop offset="1" stop-color="#2563eb"/>
    </linearGradient>
    <linearGradient id="linear-gradient1" x1="0" y1="227.49" x2="692.02" y2="227.49" gradientUnits="userSpaceOnUse">
      <stop offset="0" stop-color="#2563eb"/>
      <stop offset="1" stop-color="#09c"/>
    </linearGradient>
    <linearGradient id="linear-gradient2" x1="0" y1="418.19" x2="213.81" y2="418.19" xlink:href="#linear-gradient"/>
    <linearGradient id="linear-gradient3" x1="0" y1="513.55" x2="629.09" y2="513.55" xlink:href="#linear-gradient1"/>
  </defs>
  <g>
    <path class="st2" d="M597.03,153.05h1.63v-.05c-.54.02-1.09.05-1.63.05ZM598.66,153v.05s.02-.02.02-.05h-.02Z"/>
    <path class="st2" d="M790.86,42.63c-6.08-13.27-14.68-23.68-25.78-31.26C753.98,3.8,740.86,0,725.71,0c-12.18,0-23.28,2.84-33.29,8.53-10.01,5.68-19.42,14.14-28.22,25.38-8.77,11.22-17.1,25.36-24.96,42.41-2.69,5.68-5.96,11.17-9.74,16.43-3.81,5.29-8.33,9.61-13.59,13-5.29,3.39-11.71,5.07-19.28,5.07l-86.08.42v41.82s87.56-.02,88.1-.05h.02c14.95-.49,27.23-4.13,36.9-10.92,8.48-5.93,15.47-13.15,21.03-21.62,3.68,5.04,8.18,9.61,13.49,13.72,7.83,6.08,16.83,10.7,26.99,13.79,10.16,3.11,21.03,4.67,32.67,4.67,20.29,0,37.07-5.54,50.34-16.63,13.25-11.1,19.89-27.21,19.89-48.32,0-16.78-3.04-31.78-9.14-45.05ZM753.32,105.55c-6.5,4.87-14.48,7.32-23.95,7.32-10.82,0-20.91-2.3-30.25-6.92-9.34-4.6-16.98-10.68-22.93-18.26,5.68-13.52,12.58-24.81,20.71-33.88,8.11-9.07,17.72-13.62,28.82-13.62,8.92,0,16.09,2.25,21.53,6.7,5.41,4.47,9.39,10.08,11.96,16.86s3.86,13.94,3.86,21.53c0,8.65-3.24,15.42-9.74,20.29Z"/>
  </g>
  <g>
    <path class="st2" d="M349,439.11v-.02c-.4.02,0,.02,0,.02Z"/>
    <path class="st2" d="M779.91,209.39c-4.2-4.32-9.96-6.47-17.25-6.47s-12.73,2.15-17.05,6.47c-4.32,4.35-6.5,10.16-6.5,17.47s2.17,12.73,6.5,17.05c4.32,4.32,10.01,6.48,17.05,6.48s13.05-2.15,17.25-6.48c4.2-4.32,6.3-10.01,6.3-17.05s-2.1-13.12-6.3-17.47ZM696.08,439.09v.02h3.24c-1.09,0-2.17,0-3.24-.02Z"/>
    <path class="st2" d="M798.99,345.52c-.69-8.5-1.56-16.76-2.64-24.76-1.09-7.96-2.3-14.41-3.66-19.28-1.88-9.47-4.87-16.04-8.92-19.67-4.05-3.66-9.19-5.49-15.42-5.49-4.35,0-8.33.74-11.99,2.22-3.66,1.48-6.7,3.04-9.12,4.67,2.15,8.92,4.45,19.35,6.9,31.26,2.42,11.91,4.47,23.87,6.08,35.91,1.63,12.06,2.3,23.35,2.03,33.91-3.24,2.17-7.98,4.28-14.21,6.3-6.23,2.03-13.32,3.66-21.3,4.87-7.98,1.21-26.99,1.83-26.99,1.83-10.01,0-18.41-1.36-25.18-4.08-6.77-2.69-11.76-7.44-15-14.19-.07-.17-.17-.35-.25-.54,1.53-6.25,2.27-12.97,2.27-20.17,0-16.78-3.53-31.11-10.55-43.03-7.04-11.91-16.93-20.98-29.63-27.21-12.73-6.23-27.36-9.34-43.84-9.34-12.73,0-25.31,1.98-37.76,5.91-12.46,3.9-24.37,10.4-35.74,19.47-11.34,9.07-22.12,21.38-32.25,36.95-9,13.77-17.4,30.32-25.18,49.72-4.89-2-8.67-4.3-11.37-6.89-4.47-4.37-7.07-9.52-7.76-15.42,0-.05,0-.12-.02-.17-.02-.62-.94-44.09-.94-44.09-.27-5.68-2.1-9.89-5.49-12.58-3.39-2.72-7.64-4.05-12.78-4.05-3.78,0-7.24.32-10.35,1.01-3.11.67-5.49,1.56-7.09,2.62l-1.24,49.53c-.27,13.27-3.9,22.69-10.95,28.22-7.04,5.56-17.87,8.33-32.47,8.33h-85.26v41.82l88.13-.02c9.56-.1,18.68-1.53,27.38-4.25,9.05-2.84,16.71-7.09,22.93-12.78,4.2-3.86,7.24-8.4,9.09-13.64,3.14,4.82,7.29,9.02,12.41,12.63,9.47,6.62,23.21,11.29,41.2,13.99,18.02,2.72,40.95,4.08,68.83,4.08,45.45,0,78.61-6.77,99.45-20.32,3.21-2.08,6.15-4.3,8.87-6.7,4.47,8.21,11.54,14.68,21.16,19.5,9.32,4.65,21.25,7.17,35.74,7.49,1.06.02,7.71.02,7.71.02,14.06,0,27.95-1.56,41.62-4.67,13.67-3.11,24.69-7.24,33.07-12.38,8.95-5.68,14.75-12.46,17.47-20.31,2.69-7.83,4.05-18.66,4.05-32.47,0-7.29-.35-15.22-1.01-23.75ZM600.49,389.16c-15.03,6.5-37.02,9.74-65.99,9.74-13.25,0-24.96-.4-35.09-1.21-4.15-.35-8.18-.69-12.04-1.06,5.73-13.99,11.84-25.6,18.31-34.87,7.86-11.22,15.89-19.94,24.17-26.17,8.23-6.23,16.29-10.48,24.15-12.78,7.83-2.3,15.27-3.46,22.32-3.46,13.82,0,25.04,3.58,33.71,10.75,8.65,7.19,12.97,16.58,12.97,28.22,0,14.06-7.51,24.34-22.51,30.84Z"/>
  </g>
  <path class="st2" d="M775.63,492.29c-4.05-4.05-9.61-6.1-16.63-6.1s-12.58,2.05-16.66,6.1c-4.05,4.05-6.08,9.61-6.08,16.63s2.03,12.26,6.08,16.43c4.08,4.2,9.61,6.3,16.66,6.3s12.58-2.1,16.63-6.3c4.08-4.18,6.1-9.66,6.1-16.43s-2.03-12.58-6.1-16.63ZM715.16,492.29c-4.05-4.05-9.61-6.1-16.66-6.1s-12.16,2.05-16.24,6.1c-4.05,4.05-6.08,9.61-6.08,16.63s2.03,12.26,6.08,16.43c4.08,4.2,9.49,6.3,16.24,6.3s12.6-2.1,16.66-6.3c4.05-4.18,6.08-9.66,6.08-16.43s-2.03-12.58-6.08-16.63Z"/>
  <path class="st5" d="M15.09,111.23h448.38v41.81H15.09C6.76,153.04,0,146.28,0,137.95v-11.64C0,117.99,6.76,111.23,15.09,111.23Z"/>
  <path class="st1" d="M15.09,206.58h676.93v41.81H15.09C6.76,248.39,0,241.63,0,233.31v-11.64C0,213.34,6.76,206.58,15.09,206.58Z"/>
  <path class="st0" d="M15.09,397.29h198.73v41.81H15.09C6.76,439.1,0,432.34,0,424.01v-11.64C0,404.05,6.76,397.29,15.09,397.29Z"/>
  <path class="st3" d="M15.09,301.93h328.24v41.81H15.09C6.76,343.75,0,336.99,0,328.66v-11.64C0,308.69,6.76,301.93,15.09,301.93Z"/>
  <path class="st4" d="M15.09,492.64h614.01v41.81H15.09C6.76,534.45,0,527.69,0,519.37v-11.64C0,499.4,6.76,492.64,15.09,492.64Z"/>
  <path class="st3" d="M15.09,587.99h554.33v41.81H15.09C6.76,629.81,0,623.05,0,614.72v-11.64C0,594.75,6.76,587.99,15.09,587.99Z"/>
  <path class="st2" d="M800,655.06c0,13.81-1.36,24.64-4.05,32.5-2.72,7.83-8.53,14.61-17.47,20.29-8.38,5.14-19.43,9.27-33.07,12.38-13.67,3.11-27.56,4.67-41.62,4.67,0,0-27.75-1.36-36.13-4.05-8.38-2.72-15.42-6.92-21.11-12.6-4.6-4.6-8.13-10.18-10.6-16.73-1.48,6.38-4.67,11.84-9.49,16.34-6.1,5.68-13.59,9.94-22.54,12.78-8.92,2.84-18.14,4.28-27.61,4.28h-45.87l-520.2.25c-5.66,0-10.23-4.57-10.23-10.23v-21.33c0-5.66,4.57-10.26,10.23-10.26l475.96-.25h89.29c12.73,0,22.66-2.77,29.85-8.33,7.17-5.54,10.87-14.95,11.15-28.2l.82-49.53c1.9-.82,4.4-1.63,7.51-2.45,3.11-.82,6.57-1.21,10.36-1.21,5.14,0,9.39,1.36,12.78,4.05,3.39,2.72,5.21,6.9,5.49,12.58l.82,38.16c.54,12.46,4.4,21.4,11.57,26.79,7.17,5.44,17.13,8.13,29.83,8.13,0,0,23.08-.62,31.07-1.83,7.98-1.21,15.08-2.84,21.3-4.87,6.23-2.03,10.97-4.13,14.21-6.3.27-10.55-.4-21.85-2.03-33.88-1.63-12.04-3.66-24.02-6.08-35.93-2.45-11.91-4.75-22.32-6.9-31.26,2.42-1.61,5.46-3.16,9.12-4.67,3.66-1.48,7.64-2.22,11.99-2.22,6.2,0,11.37,1.83,15.42,5.49,4.05,3.66,7.02,10.21,8.92,19.67,1.36,4.87,2.57,11.32,3.66,19.3,1.09,7.98,1.95,16.24,2.64,24.76.67,8.53,1.01,16.43,1.01,23.73Z"/>
  <path class="st2" d="M622.18,760.61c-4.05-4.05-9.59-6.08-16.63-6.08s-12.18,2.03-16.24,6.08c-4.05,4.08-6.08,9.61-6.08,16.66s2.03,12.23,6.08,16.43c4.05,4.2,9.47,6.3,16.24,6.3s12.58-2.1,16.63-6.3c4.08-4.2,6.1-9.69,6.1-16.43s-2.03-12.58-6.1-16.66ZM682.68,760.61c-4.05-4.05-9.61-6.08-16.66-6.08s-12.58,2.03-16.63,6.08c-4.05,4.08-6.1,9.61-6.1,16.66s2.05,12.23,6.1,16.43c4.05,4.2,9.59,6.3,16.63,6.3s12.6-2.1,16.66-6.3c4.05-4.2,6.08-9.69,6.08-16.43s-2.03-12.58-6.08-16.66Z"/>
</svg>